<svg xmlns="http://www.w3.org/2000/svg" width="316.95" height="327.145"><defs><clipPath id="a"><path data-name="Rectangle 30" fill="none" d="M0 0h113.784v101.4H0z"/></clipPath></defs><g data-name="Group 27"><path data-name="Path 2" d="M144.807 127.374h36.482v30.59h-40.131l-5.613 44.9h-31.711l5.614-44.9H68.193l-5.612 44.9h-31.43l5.612-44.9H0v-30.59h40.411l5.893-45.462H9.541V51.323h40.41l5.614-44.9h31.431l-5.614 44.9h41.255l5.612-44.9h31.431l-5.612 44.9h36.483l.281 30.589h-40.413zm-31.712 0l5.893-45.462H77.735l-5.893 45.462z" fill="#f4f3f2"/></g><text data-name="@" transform="translate(93.606 180.594)" fill="#2d3e76" font-size="24" font-family="Montserrat-Bold, Montserrat" font-weight="700"><tspan x="0" y="0">@</tspan></text><path data-name="Path 3" stroke="#2d3e76" d="M302.388 113.52c5.132 16.933-2.249 36.144-15.7 47.64s-31.932 15.92-49.6 14.932-34.7-6.954-50.818-14.243-31.601-15.955-47.911-22.826c-11.633-4.9-24.67-8.9-36.7-5.091-11.878 3.758-20.506 14.827-23.654 26.881s-1.459 24.926 2.238 36.823c2.41 7.753 5.756 15.4 11.255 21.372 6.219 6.755 14.74 10.9 23.28 14.276 27.629 10.919 58.554 15.288 87.3 7.769 9.308-2.434 18.265-6.067 27.546-8.6a121.648 121.648 0 0128.552-4.25c13.1-.377 27.42 1.954 36.3 11.594 7.723 8.383 9.7 20.587 9.423 31.98-.254 10.329-2.415 21.307-9.667 28.665-7.807 7.922-19.742 9.94-30.853 10.394 0 0-175.654-50.586-174.212-1.568" fill="none" stroke-linecap="round" stroke-linejoin="round" stroke-width="2" stroke-dasharray="4 4"/><g data-name="Group 28" transform="translate(235.974 .561)"><circle data-name="Ellipse 4" cx="18.261" cy="18.261" r="18.261" fill="#04f"/><path data-name="Path 4" d="M28.552 11.671c-3.467-4.5-10.291-1.845-10.291 2.726 0-4.571-6.822-7.228-10.289-2.726-3.583 4.653-.052 12.8 10.289 17.485 10.342-4.681 13.874-12.832 10.291-17.485z" fill="#fff"/></g><g data-name="Group 33" transform="translate(125.203 46.936)"><rect data-name="Rectangle 27" width="154.021" height="260.947" rx="10.667" fill="#233270"/><path data-name="Rectangle 28" fill="#4e6196" d="M12.124 23.05h129.773v209.06H12.124z"/><path data-name="Path 5" d="M87.819 246.051a10.813 10.813 0 11-10.813-10.814 10.812 10.812 0 0110.813 10.814z" fill="none" stroke="#ffbe00" stroke-miterlimit="10"/><g data-name="Group 29" fill="#4e6196"><path data-name="Path 6" d="M101.64 14.897H61.271a1.8 1.8 0 01-1.8-1.8 1.8 1.8 0 011.8-1.8h40.369a1.8 1.8 0 011.8 1.8 1.8 1.8 0 01-1.8 1.8z"/><path data-name="Path 7" d="M55.866 13.096a2.643 2.643 0 11-2.644-2.644 2.643 2.643 0 012.644 2.644z"/></g><g data-name="Group 32"><path data-name="Rectangle 29" fill="#ffbe00" d="M20.119 40.294h113.784v101.4H20.119z"/><g data-name="Group 31"><g data-name="Group 30" clip-path="url(#a)" transform="translate(20.119 40.294)"><path data-name="Path 8" d="M-9.308 81.423S13.984 41.678 22.95 41.279c8.836-.393 45.768 54.92 47.532 72.454s-85.3 10.943-85.3 10.943z" fill="#ffcf57"/><path data-name="Path 9" d="M27.43 90.501a263.929 263.929 0 0132.788-55.133c9.287-11.927 18.54-19.866 23.8-19.906 10.442-.076 55.413 73.422 55.972 96.869S11.712 125.894 11.712 125.894z" fill="#efb237"/><circle data-name="Ellipse 5" cx="19.223" cy="19.223" r="19.223" transform="rotate(-74.774 11.041 20.804)" fill="#ffd983"/></g></g></g><path data-name="Rectangle 31" fill="#566ba5" d="M20.064 30.756h113.894v5.286H20.064z"/><path data-name="Rectangle 32" fill="#566ba5" d="M20.064 148.878h113.894v9.086H20.064z"/><path data-name="Rectangle 33" fill="#566ba5" d="M81.696 164.737h52.262v9.086H81.696z"/><path data-name="Rectangle 34" fill="#566ba5" d="M20.784 164.737h52.262v23.765H20.784z"/><path data-name="Rectangle 35" fill="#566ba5" d="M81.696 180.595h52.262v9.086H81.696z"/><path data-name="Rectangle 36" fill="#566ba5" d="M20.064 196.454h113.894v9.086H20.064z"/><path data-name="Rectangle 37" fill="#566ba5" d="M20.064 212.313h113.894v9.086H20.064z"/></g><g data-name="Group 34" transform="translate(55.281 195.431)"><rect data-name="Rectangle 38" width="98.036" height="70.643" rx="10.333" fill="#04f"/><path data-name="Path 10" d="M69.261 35.141L37.424 52.622v-34.6z" fill="#fff"/></g><path data-name="Path 11" d="M145.528 56.046h-1.007a1.908 1.908 0 01-1.908-1.906v-1.007a1.908 1.908 0 00-1.908-1.908 1.907 1.907 0 00-1.906 1.908v1.007a1.908 1.908 0 01-1.908 1.906h-1.007a1.908 1.908 0 00-1.908 1.908 1.908 1.908 0 001.908 1.908h1.007a1.907 1.907 0 011.908 1.906v1.005a1.907 1.907 0 001.906 1.908 1.908 1.908 0 001.908-1.908v-1.005a1.907 1.907 0 011.908-1.906h1.007a1.907 1.907 0 001.906-1.908 1.907 1.907 0 00-1.906-1.908z" fill="#fff"/><path data-name="Path 12" d="M134.054 70.003h-.441a.835.835 0 01-.835-.835v-.44a.834.834 0 00-.833-.835.835.835 0 00-.835.835v.44a.835.835 0 01-.835.835h-.44a.835.835 0 00-.835.835.834.834 0 00.835.833h.44a.835.835 0 01.835.835v.44a.835.835 0 00.835.835.834.834 0 00.833-.835v-.44a.835.835 0 01.835-.835h.441a.833.833 0 00.833-.833.834.834 0 00-.833-.835z" fill="#fff"/><g data-name="Group 47"><g data-name="Group 37"><g data-name="Group 36"><g data-name="Group 35"><path data-name="Path 13" d="M126.203 0a8.94 8.94 0 00-8.977 9.055v27.086a9.057 9.057 0 009.056 9.056h24.094l6.537 8.5 6.535-8.5h2.913a9.058 9.058 0 009.056-9.056V9.055A9.056 9.056 0 00166.361 0zm0 0" fill="#04f"/></g></g></g><g data-name="Group 40"><g data-name="Group 39"><g data-name="Group 38"><path data-name="Path 14" d="M155.574 23.937a5.355 5.355 0 115.355 5.355 5.354 5.354 0 01-5.355-5.355zm0 0" fill="#fff"/></g></g></g><g data-name="Group 43"><g data-name="Group 42"><g data-name="Group 41"><path data-name="Path 15" d="M140.926 23.937a5.355 5.355 0 115.358 5.354 5.355 5.355 0 01-5.355-5.355zm0 0" fill="#fff"/></g></g></g><g data-name="Group 46"><g data-name="Group 45"><g data-name="Group 44"><path data-name="Path 16" d="M126.282 23.937a5.354 5.354 0 115.353 5.355 5.354 5.354 0 01-5.353-5.355zm0 0" fill="#fff"/></g></g></g></g><g data-name="Group 50"><path data-name="Path 35" d="M88.141 95.193a15.558 15.558 0 110 22.002 15.558 15.558 0 010-22.002z" fill="#04f"/><g data-name="Group 49"><g data-name="Group 48" fill="#fff"><path data-name="Path 17" d="M107.366 105.691a2.416 2.416 0 00.607-1.644 2.146 2.146 0 00-2.119-2.12h-3.057c.03-.1.06-.191.088-.265a1.971 1.971 0 01.123-.244 2.88 2.88 0 00.109-.2q.2-.375.3-.618a4.463 4.463 0 00.209-.663 3.43 3.43 0 00.1-.839c0-.177 0-.32-.006-.429a4.51 4.51 0 00-.054-.5 2.708 2.708 0 00-.133-.552 2.556 2.556 0 00-.265-.5 1.518 1.518 0 00-.441-.447 2.4 2.4 0 00-.663-.287 3.266 3.266 0 00-.91-.115.672.672 0 00-.5.209 1.9 1.9 0 00-.377.551 3.405 3.405 0 00-.214.575q-.061.245-.139.673c-.066.31-.115.531-.148.669a3.632 3.632 0 01-.193.534 1.663 1.663 0 01-.343.53 16.169 16.169 0 00-1.115 1.326q-.541.7-1.115 1.335t-.839.652a.729.729 0 00-.476.226.668.668 0 00-.2.48v7.075a.668.668 0 00.209.492.728.728 0 00.5.214 8.062 8.062 0 011.745.486q.851.287 1.33.437t1.341.32a8.214 8.214 0 001.589.171h1.424a2.738 2.738 0 002.174-.862 2.648 2.648 0 00.542-2 2.138 2.138 0 00.6-1.037 2.258 2.258 0 000-1.291 2.307 2.307 0 00.476-1.513 2.652 2.652 0 00-.166-.839zm0 0"/><path data-name="Path 18" d="M94.2 103.339h-3.178a.718.718 0 00-.706.708v7.063a.718.718 0 00.706.708H94.2a.721.721 0 00.708-.708v-7.063a.721.721 0 00-.708-.708zm-1.269 6.861a.7.7 0 01-1.2-.5.7.7 0 01.2-.5.707.707 0 111 1zm0 0"/></g></g></g><path data-name="Path 19" d="M297.885 67.94a14.717 14.717 0 00-21.17 7.746 19.356 19.356 0 008.585 23.463l14.963 8.085 6.207-15.831a19.342 19.342 0 00-8.585-23.463zm-4.213 21.275a7.928 7.928 0 114.726-10.168 7.936 7.936 0 01-4.726 10.168zm0 0" fill="#ffd983"/><g data-name="Group 59"><g data-name="Group 58"><g data-name="Group 52"><g data-name="Group 51"><path data-name="Path 20" d="M315.897 27.577h-4.348v4.249h-3.224v-4.249h-4.324v-3.049h4.324V20.28h3.224v4.248h4.348z" fill="#233270"/></g></g><g data-name="Group 57"><g data-name="Group 54"><g data-name="Group 53"><path data-name="Path 21" d="M293.151 30.723a6.226 6.226 0 10-6.225-6.227 6.231 6.231 0 006.225 6.227" fill="#233270"/></g></g><g data-name="Group 56"><g data-name="Group 55"><path data-name="Path 22" d="M295.792 31.148h-5.283a7.979 7.979 0 00-7.97 7.97v6.465l.013.1.447.139a36.23 36.23 0 0010.84 1.746 22.216 22.216 0 009.465-1.776l.416-.209h.045v-6.465a7.981 7.981 0 00-7.973-7.97" fill="#233270"/></g></g></g></g></g><g data-name="Group 68"><g data-name="Group 64"><g data-name="Group 63"><g data-name="Group 60"><path data-name="Path 23" d="M293.508 271.721h-1.007a1.908 1.908 0 01-1.908-1.908v-1.005a1.906 1.906 0 00-1.906-1.908 1.907 1.907 0 00-1.908 1.908v1.005a1.908 1.908 0 01-1.908 1.908h-1.007a1.907 1.907 0 00-1.906 1.908 1.905 1.905 0 001.906 1.906h1.007a1.908 1.908 0 011.908 1.908v1.005a1.908 1.908 0 001.908 1.908 1.907 1.907 0 001.906-1.908v-1.011a1.908 1.908 0 011.908-1.908h1.007a1.907 1.907 0 001.908-1.906 1.908 1.908 0 00-1.908-1.902z" fill="#04f"/></g><g data-name="Group 61"><path data-name="Path 24" d="M299.184 284.906h-.675a1.278 1.278 0 01-1.278-1.278v-.675a1.276 1.276 0 00-1.276-1.276 1.277 1.277 0 00-1.278 1.276v.675a1.278 1.278 0 01-1.276 1.278h-.675a1.278 1.278 0 00-1.278 1.276 1.279 1.279 0 001.278 1.278h.675a1.276 1.276 0 011.277 1.277v.673a1.277 1.277 0 001.278 1.278 1.277 1.277 0 001.276-1.278v-.673a1.277 1.277 0 011.278-1.276h.675a1.278 1.278 0 001.276-1.278 1.276 1.276 0 00-1.277-1.277z" fill="#04f"/></g><g data-name="Group 62"><path data-name="Path 25" d="M315.825 305.059a13.062 13.062 0 00-3.969-5.474c-9.9-7.9-22.394-3.589-22.394-3.589s1.149-19.809-18.8-20.671a16.176 16.176 0 00-12.717 5.039 15.2 15.2 0 00-24.944 13.253c-5.5 1.592-10.353 5.784-11.173 15.376a16.571 16.571 0 0016.407 18.153h62.087c11.42-.001 19.748-11.479 15.503-22.087z" fill="#04f"/></g></g></g><g data-name="Group 67"><g data-name="Group 66" fill="#f9d27a"><path data-name="Path 26" d="M267.217 316.515a2.343 2.343 0 102.343 2.343 2.347 2.347 0 00-2.343-2.343z"/><g data-name="Group 65"><path data-name="Path 27" d="M267.219 310.632a8.158 8.158 0 00-5.736 2.358 1.511 1.511 0 00-.013 2.1 1.49 1.49 0 002.124.069 5.127 5.127 0 017.252 0 1.487 1.487 0 002.123-.069 1.511 1.511 0 00-.012-2.1 8.165 8.165 0 00-5.738-2.358z"/><path data-name="Path 28" d="M267.217 295.485a23.246 23.246 0 00-16.1 6.477 1.5 1.5 0 00-.024 2.1l.147.156a1.494 1.494 0 002.113.084 20.017 20.017 0 0127.726 0 1.494 1.494 0 002.113-.084l.147-.156a1.5 1.5 0 00-.024-2.1 23.243 23.243 0 00-16.098-6.477z"/><path data-name="Path 29" d="M267.217 303.726a15.056 15.056 0 00-10.325 4.095 1.636 1.636 0 00-.085 2.316 1.612 1.612 0 002.285.055 11.855 11.855 0 0116.251 0 1.612 1.612 0 002.285-.055 1.638 1.638 0 00-.084-2.316 15.063 15.063 0 00-10.327-4.095z"/></g></g></g></g><g data-name="Group 70"><path data-name="Path 30" d="M305.283 195.576h-54.784a6.607 6.607 0 00-6.607 6.609v12.016a6.607 6.607 0 006.607 6.607h9.216l2.678 5.768 3.549-5.768h39.341a6.608 6.608 0 006.608-6.607v-12.016a6.608 6.608 0 00-6.608-6.609z" fill="#04f"/><g data-name="Group 69" fill="#fff"><path data-name="Path 31" d="M283.888 209.531h-2.795v2.727h-2.071v-2.73h-2.78v-1.958h2.78v-2.73h2.071v2.73h2.795z"/><path data-name="Path 32" d="M293.984 210.639c0 1.991-1.46 3.725-4.672 3.725a7.753 7.753 0 01-4.288-1.206l1.028-1.99a5.408 5.408 0 003.2 1.011c1.3 0 2.1-.546 2.1-1.46 0-.884-.579-1.462-2.618-1.462h-2.875l.578-6.327h6.858v2.087h-4.69l-.177 2.135h.916c3.325.001 4.64 1.494 4.64 3.487z"/><path data-name="Path 33" d="M304.321 210.623c0 2.3-1.879 3.742-4.255 3.742-3.1 0-5.027-1.943-5.027-5.573 0-3.885 2.344-6.053 5.733-6.053a6.067 6.067 0 013.131.771l-.964 1.912a3.7 3.7 0 00-2.1-.564c-1.879 0-3.084 1.109-3.164 3.262a3.79 3.79 0 012.778-1 3.567 3.567 0 013.868 3.503zm-2.521.127a1.693 1.693 0 00-1.911-1.685 1.757 1.757 0 00-1.943 1.685c0 .965.723 1.671 1.975 1.671a1.681 1.681 0 001.879-1.671z"/></g><path data-name="Path 34" d="M268.514 202.265c-2.71-3.519-8.043-1.442-8.043 2.129 0-3.571-5.332-5.648-8.043-2.129-2.8 3.637-.04 10.008 8.043 13.667 8.083-3.659 10.843-10.031 8.043-13.667z" fill="#fff"/></g></svg>