<svg xmlns="http://www.w3.org/2000/svg" xmlns:xlink="http://www.w3.org/1999/xlink" width="316.95" height="327.145" viewBox="0 0 316.95 327.145">
  <defs>
    <clipPath id="clip-path">
      <rect id="Rectangle_30" data-name="Rectangle 30" width="113.784" height="101.4" fill="none"/>
    </clipPath>
  </defs>
  <g id="illutration" transform="translate(-237.849 -141.671)">
    <g id="Group_27" data-name="Group 27" transform="translate(237.849 148.092)">
      <path id="Path_2" data-name="Path 2" d="M382.656,266.916h36.482v30.59H379.007l-5.613,44.9H341.683l5.614-44.9H306.042l-5.612,44.9H269l5.612-44.9H237.849v-30.59H278.26l5.893-45.462H247.39V190.865H287.8l5.614-44.9h31.431l-5.614,44.9h41.255l5.612-44.9h31.431l-5.612,44.9H428.4l.281,30.589H388.268Zm-31.712,0,5.893-45.462H315.584l-5.893,45.462Z" transform="translate(-237.849 -145.963)" fill="#f4f3f2"/>
    </g>
    <text id="_" data-name="@" transform="translate(331.455 322.265)" fill="#2d3e76" font-size="24" font-family="Montserrat-Bold, Montserrat" font-weight="700"><tspan x="0" y="0">@</tspan></text>
    <path id="Path_3" data-name="Path 3" stroke="#2d3e76" d="M514.919,217.546c5.132,16.933-2.249,36.144-15.7,47.64s-31.932,15.92-49.6,14.932-34.7-6.954-50.818-14.243S367.2,249.92,350.89,243.049c-11.633-4.9-24.67-8.9-36.7-5.091-11.878,3.758-20.506,14.827-23.654,26.881s-1.459,24.926,2.238,36.823c2.41,7.753,5.756,15.4,11.255,21.372,6.219,6.755,14.74,10.9,23.28,14.276,27.629,10.919,58.554,15.288,87.3,7.769,9.308-2.434,18.265-6.067,27.546-8.6a121.648,121.648,0,0,1,28.552-4.25c13.1-.377,27.42,1.954,36.3,11.594,7.723,8.383,9.7,20.587,9.423,31.98-.254,10.329-2.415,21.307-9.667,28.665-7.807,7.922-19.742,9.94-30.853,10.394,0,0-175.654-50.586-174.212-1.568" fill="none" transform="translate(25.318 37.645)" stroke-linecap="round" stroke-linejoin="round" stroke-width="2" stroke-dasharray="4 4"/>
    <g id="Group_28" data-name="Group 28" transform="translate(473.823 142.232)">
      <circle id="Ellipse_4" data-name="Ellipse 4" cx="18.261" cy="18.261" r="18.261" fill="#04f"/>
      <path id="Path_4" data-name="Path 4" d="M421.929,150.617c-3.467-4.5-10.291-1.845-10.291,2.726,0-4.571-6.822-7.228-10.289-2.726-3.583,4.653-.052,12.8,10.289,17.485C421.98,163.421,425.512,155.27,421.929,150.617Z" transform="translate(-393.377 -138.946)" fill="#fff"/>
    </g>
    <g id="Group_33" data-name="Group 33" transform="translate(363.052 188.607)">
      <rect id="Rectangle_27" data-name="Rectangle 27" width="154.021" height="260.947" rx="10.667" fill="#233270"/>
      <rect id="Rectangle_28" data-name="Rectangle 28" width="129.773" height="209.06" transform="translate(12.124 23.05)" fill="#4e6196"/>
      <path id="Path_5" data-name="Path 5" d="M387.4,341.085a10.813,10.813,0,1,1-10.813-10.814A10.812,10.812,0,0,1,387.4,341.085Z" transform="translate(-299.581 -95.034)" fill="none" stroke="#ffbe00" stroke-miterlimit="10" stroke-width="1"/>
      <g id="Group_29" data-name="Group 29" transform="translate(50.58 10.452)">
        <path id="Path_6" data-name="Path 6" d="M403.452,184.194H363.083a1.8,1.8,0,0,1-1.8-1.8h0a1.8,1.8,0,0,1,1.8-1.8h40.369a1.8,1.8,0,0,1,1.8,1.8h0A1.8,1.8,0,0,1,403.452,184.194Z" transform="translate(-352.392 -179.749)" fill="#4e6196"/>
        <path id="Path_7" data-name="Path 7" d="M360.626,182.672a2.643,2.643,0,1,1-2.644-2.644A2.643,2.643,0,0,1,360.626,182.672Z" transform="translate(-355.34 -180.028)" fill="#4e6196"/>
      </g>
      <g id="Group_32" data-name="Group 32" transform="translate(20.119 40.294)">
        <rect id="Rectangle_29" data-name="Rectangle 29" width="113.784" height="101.4" fill="#ffbe00"/>
        <g id="Group_31" data-name="Group 31">
          <g id="Group_30" data-name="Group 30" clip-path="url(#clip-path)">
            <path id="Path_8" data-name="Path 8" d="M330.586,267.709s23.292-39.745,32.258-40.144c8.836-.393,45.768,54.92,47.532,72.454s-85.3,10.943-85.3,10.943Z" transform="translate(-339.894 -186.286)" fill="#ffcf57"/>
            <path id="Path_9" data-name="Path 9" d="M358.527,285.348a263.929,263.929,0,0,1,32.788-55.133c9.287-11.927,18.54-19.866,23.8-19.906,10.442-.076,55.413,73.422,55.972,96.869s-128.278,13.563-128.278,13.563Z" transform="translate(-331.097 -194.847)" fill="#efb237"/>
            <circle id="Ellipse_5" data-name="Ellipse 5" cx="19.223" cy="19.223" r="19.223" transform="translate(-11.932 25.994) rotate(-74.774)" fill="#ffd983"/>
          </g>
        </g>
      </g>
      <rect id="Rectangle_31" data-name="Rectangle 31" width="113.894" height="5.286" transform="translate(20.064 30.756)" fill="#566ba5"/>
      <rect id="Rectangle_32" data-name="Rectangle 32" width="113.894" height="9.086" transform="translate(20.064 148.878)" fill="#566ba5"/>
      <rect id="Rectangle_33" data-name="Rectangle 33" width="52.262" height="9.086" transform="translate(81.696 164.737)" fill="#566ba5"/>
      <rect id="Rectangle_34" data-name="Rectangle 34" width="52.262" height="23.765" transform="translate(20.784 164.737)" fill="#566ba5"/>
      <rect id="Rectangle_35" data-name="Rectangle 35" width="52.262" height="9.086" transform="translate(81.696 180.595)" fill="#566ba5"/>
      <rect id="Rectangle_36" data-name="Rectangle 36" width="113.894" height="9.086" transform="translate(20.064 196.454)" fill="#566ba5"/>
      <rect id="Rectangle_37" data-name="Rectangle 37" width="113.894" height="9.086" transform="translate(20.064 212.313)" fill="#566ba5"/>
    </g>
    <g id="Group_34" data-name="Group 34" transform="translate(293.13 337.102)">
      <rect id="Rectangle_38" data-name="Rectangle 38" width="98.036" height="70.643" rx="10.333" fill="#04f"/>
      <path id="Path_10" data-name="Path 10" d="M331.649,301.459,299.812,318.94v-34.6Z" transform="translate(-262.388 -266.318)" fill="#fff"/>
    </g>
    <path id="Path_11" data-name="Path 11" d="M338.948,180.73h-1.007a1.908,1.908,0,0,1-1.908-1.906v-1.007a1.908,1.908,0,0,0-1.908-1.908h0a1.907,1.907,0,0,0-1.906,1.908v1.007a1.908,1.908,0,0,1-1.908,1.906h-1.007a1.908,1.908,0,0,0-1.908,1.908h0a1.908,1.908,0,0,0,1.908,1.908h1.007a1.907,1.907,0,0,1,1.908,1.906v1.005a1.907,1.907,0,0,0,1.906,1.908h0a1.908,1.908,0,0,0,1.908-1.908v-1.005a1.907,1.907,0,0,1,1.908-1.906h1.007a1.907,1.907,0,0,0,1.906-1.908h0A1.907,1.907,0,0,0,338.948,180.73Z" transform="translate(44.429 16.987)" fill="#fff"/>
    <path id="Path_12" data-name="Path 12" d="M329.125,189.16h-.441a.835.835,0,0,1-.835-.835v-.44a.834.834,0,0,0-.833-.835h0a.835.835,0,0,0-.835.835v.44a.835.835,0,0,1-.835.835h-.44a.835.835,0,0,0-.835.835h0a.834.834,0,0,0,.835.833h.44a.835.835,0,0,1,.835.835v.44a.835.835,0,0,0,.835.835h0a.834.834,0,0,0,.833-.835v-.44a.835.835,0,0,1,.835-.835h.441a.833.833,0,0,0,.833-.833h0A.834.834,0,0,0,329.125,189.16Z" transform="translate(42.778 22.514)" fill="#fff"/>
    <g id="Group_47" data-name="Group 47" transform="translate(355.074 141.671)">
      <g id="Group_37" data-name="Group 37">
        <g id="Group_36" data-name="Group 36">
          <g id="Group_35" data-name="Group 35">
            <path id="Path_13" data-name="Path 13" d="M325.178,141.671a8.94,8.94,0,0,0-8.977,9.055v27.086a9.057,9.057,0,0,0,9.056,9.056h24.094l6.537,8.5,6.535-8.5h2.913a9.058,9.058,0,0,0,9.056-9.056V150.726a9.056,9.056,0,0,0-9.056-9.055Zm0,0" transform="translate(-316.2 -141.671)" fill="#04f"/>
          </g>
        </g>
      </g>
      <g id="Group_40" data-name="Group 40" transform="translate(38.349 18.582)">
        <g id="Group_39" data-name="Group 39">
          <g id="Group_38" data-name="Group 38">
            <path id="Path_14" data-name="Path 14" d="M341.832,159.446a5.355,5.355,0,1,1,5.355,5.355,5.354,5.354,0,0,1-5.355-5.355Zm0,0" transform="translate(-341.832 -154.091)" fill="#fff"/>
          </g>
        </g>
      </g>
      <g id="Group_43" data-name="Group 43" transform="translate(23.701 18.582)">
        <g id="Group_42" data-name="Group 42">
          <g id="Group_41" data-name="Group 41">
            <path id="Path_15" data-name="Path 15" d="M332.042,159.446A5.355,5.355,0,1,1,337.4,164.8a5.355,5.355,0,0,1-5.355-5.355Zm0,0" transform="translate(-332.042 -154.091)" fill="#fff"/>
          </g>
        </g>
      </g>
      <g id="Group_46" data-name="Group 46" transform="translate(9.057 18.582)">
        <g id="Group_45" data-name="Group 45">
          <g id="Group_44" data-name="Group 44">
            <path id="Path_16" data-name="Path 16" d="M322.254,159.446a5.354,5.354,0,1,1,5.353,5.355,5.354,5.354,0,0,1-5.353-5.355Zm0,0" transform="translate(-322.254 -154.091)" fill="#fff"/>
          </g>
        </g>
      </g>
    </g>
    <g id="Group_50" data-name="Group 50" transform="translate(314.989 225.862)">
      <path id="Path_35" data-name="Path 35" d="M15.558,0A15.558,15.558,0,1,1,0,15.558,15.558,15.558,0,0,1,15.558,0Z" transform="translate(0 22.003) rotate(-45)" fill="#04f"/>
      <g id="Group_49" data-name="Group 49" transform="translate(13.173 12.085)">
        <g id="Group_48" data-name="Group 48">
          <path id="Path_17" data-name="Path 17" d="M313.509,215.435a2.416,2.416,0,0,0,.607-1.644,2.146,2.146,0,0,0-2.119-2.12H308.94c.03-.1.06-.191.088-.265a1.971,1.971,0,0,1,.123-.244c.051-.087.087-.154.109-.2q.2-.375.3-.618a4.463,4.463,0,0,0,.209-.663,3.43,3.43,0,0,0,.1-.839c0-.177,0-.32-.006-.429a4.51,4.51,0,0,0-.054-.5,2.708,2.708,0,0,0-.133-.552,2.556,2.556,0,0,0-.265-.5,1.518,1.518,0,0,0-.441-.447,2.4,2.4,0,0,0-.663-.287,3.266,3.266,0,0,0-.91-.115.672.672,0,0,0-.5.209,1.9,1.9,0,0,0-.377.551,3.405,3.405,0,0,0-.214.575q-.061.245-.139.673c-.066.31-.115.531-.148.669a3.632,3.632,0,0,1-.193.534,1.663,1.663,0,0,1-.343.53,16.169,16.169,0,0,0-1.115,1.326q-.541.7-1.115,1.335t-.839.652a.729.729,0,0,0-.476.226.668.668,0,0,0-.2.48v7.075a.668.668,0,0,0,.209.492.728.728,0,0,0,.5.214,8.062,8.062,0,0,1,1.745.486q.851.287,1.33.437t1.341.32a8.214,8.214,0,0,0,1.589.171h1.424a2.738,2.738,0,0,0,2.174-.862,2.648,2.648,0,0,0,.542-2,2.138,2.138,0,0,0,.6-1.037,2.258,2.258,0,0,0,0-1.291,2.307,2.307,0,0,0,.476-1.513,2.652,2.652,0,0,0-.166-.839Zm0,0" transform="translate(-296.456 -206.02)" fill="#fff"/>
          <path id="Path_18" data-name="Path 18" d="M302.1,210.741h-3.178a.718.718,0,0,0-.706.708v7.063a.718.718,0,0,0,.706.708H302.1a.721.721,0,0,0,.708-.708v-7.063a.721.721,0,0,0-.708-.708Zm-1.269,6.861a.7.7,0,0,1-1.2-.5.7.7,0,0,1,.2-.5.707.707,0,1,1,1,1Zm0,0" transform="translate(-298.213 -203.678)" fill="#fff"/>
        </g>
      </g>
    </g>
    <path id="Path_19" data-name="Path 19" d="M444.373,187.725a14.717,14.717,0,0,0-21.17,7.746,19.356,19.356,0,0,0,8.585,23.463l14.963,8.085,6.207-15.831a19.342,19.342,0,0,0-8.585-23.463ZM440.16,209a7.928,7.928,0,1,1,4.726-10.168A7.936,7.936,0,0,1,440.16,209Zm0,0" transform="translate(91.361 21.886)" fill="#ffd983"/>
    <g id="Group_59" data-name="Group 59" transform="translate(520.388 159.942)">
      <g id="Group_58" data-name="Group 58">
        <g id="Group_52" data-name="Group 52" transform="translate(21.462 2.009)">
          <g id="Group_51" data-name="Group 51">
            <path id="Path_20" data-name="Path 20" d="M452.935,162.523h-4.348v4.249h-3.224v-4.249h-4.324v-3.049h4.324v-4.248h3.224v4.248h4.348Z" transform="translate(-441.039 -155.226)" fill="#233270"/>
          </g>
        </g>
        <g id="Group_57" data-name="Group 57">
          <g id="Group_54" data-name="Group 54" transform="translate(4.387)">
            <g id="Group_53" data-name="Group 53">
              <path id="Path_21" data-name="Path 21" d="M435.851,166.335a6.226,6.226,0,1,0-6.225-6.227,6.231,6.231,0,0,0,6.225,6.227" transform="translate(-429.626 -153.883)" fill="#233270"/>
            </g>
          </g>
          <g id="Group_56" data-name="Group 56" transform="translate(0 12.877)">
            <g id="Group_55" data-name="Group 55">
              <path id="Path_22" data-name="Path 22" d="M439.947,162.49h-5.283a7.979,7.979,0,0,0-7.97,7.97v6.465l.013.1.447.139a36.23,36.23,0,0,0,10.84,1.746,22.216,22.216,0,0,0,9.465-1.776l.416-.209h.045V170.46a7.981,7.981,0,0,0-7.973-7.97" transform="translate(-426.694 -162.49)" fill="#233270"/>
            </g>
          </g>
        </g>
      </g>
    </g>
    <g id="Group_68" data-name="Group 68" transform="translate(459.61 408.571)">
      <g id="Group_64" data-name="Group 64" transform="translate(0 0)">
        <g id="Group_63" data-name="Group 63">
          <g id="Group_60" data-name="Group 60" transform="translate(60.198)">
            <path id="Path_23" data-name="Path 23" d="M437.855,324.884h-1.007a1.908,1.908,0,0,1-1.908-1.908v-1.005a1.906,1.906,0,0,0-1.906-1.908h0a1.907,1.907,0,0,0-1.908,1.908v1.005a1.908,1.908,0,0,1-1.908,1.908h-1.007a1.907,1.907,0,0,0-1.906,1.908h0a1.905,1.905,0,0,0,1.906,1.906h1.007a1.908,1.908,0,0,1,1.908,1.908v1.005a1.908,1.908,0,0,0,1.908,1.908h0a1.907,1.907,0,0,0,1.906-1.908V330.6a1.908,1.908,0,0,1,1.908-1.908h1.007a1.907,1.907,0,0,0,1.908-1.906h0A1.908,1.908,0,0,0,437.855,324.884Z" transform="translate(-426.306 -320.063)" fill="#04f"/>
          </g>
          <g id="Group_61" data-name="Group 61" transform="translate(69.688 14.777)">
            <path id="Path_24" data-name="Path 24" d="M440.384,333.169h-.675a1.278,1.278,0,0,1-1.278-1.278v-.675a1.276,1.276,0,0,0-1.276-1.276h0a1.277,1.277,0,0,0-1.278,1.276v.675a1.278,1.278,0,0,1-1.276,1.278h-.675a1.278,1.278,0,0,0-1.278,1.276h0a1.279,1.279,0,0,0,1.278,1.278h.675A1.276,1.276,0,0,1,435.878,337v.673a1.277,1.277,0,0,0,1.278,1.278h0a1.277,1.277,0,0,0,1.276-1.278V337a1.277,1.277,0,0,1,1.278-1.276h.675a1.278,1.278,0,0,0,1.276-1.278h0A1.276,1.276,0,0,0,440.384,333.169Z" transform="translate(-432.649 -329.94)" fill="#04f"/>
          </g>
          <g id="Group_62" data-name="Group 62" transform="translate(0 8.407)">
            <path id="Path_25" data-name="Path 25" d="M480.135,355.434a13.062,13.062,0,0,0-3.969-5.474c-9.9-7.9-22.394-3.589-22.394-3.589s1.149-19.809-18.8-20.671a16.176,16.176,0,0,0-12.717,5.039,15.2,15.2,0,0,0-24.944,13.253c-5.5,1.592-10.353,5.784-11.173,15.376a16.571,16.571,0,0,0,16.407,18.153h62.087C476.052,377.52,484.38,366.042,480.135,355.434Z" transform="translate(-386.071 -325.682)" fill="#04f"/>
          </g>
        </g>
      </g>
      <g id="Group_67" data-name="Group 67" transform="translate(28.916 28.585)">
        <g id="Group_66" data-name="Group 66">
          <path id="Path_26" data-name="Path 26" d="M417.23,353.225a2.343,2.343,0,1,0,2.343,2.343A2.347,2.347,0,0,0,417.23,353.225Z" transform="translate(-400.69 -332.195)" fill="#f9d27a"/>
          <g id="Group_65" data-name="Group 65">
            <path id="Path_27" data-name="Path 27" d="M418.5,349.293a8.158,8.158,0,0,0-5.736,2.358,1.511,1.511,0,0,0-.013,2.1h0a1.49,1.49,0,0,0,2.124.069,5.127,5.127,0,0,1,7.252,0,1.487,1.487,0,0,0,2.123-.069h0a1.511,1.511,0,0,0-.012-2.1A8.165,8.165,0,0,0,418.5,349.293Z" transform="translate(-401.958 -334.146)" fill="#f9d27a"/>
            <path id="Path_28" data-name="Path 28" d="M421.938,339.169a23.246,23.246,0,0,0-16.1,6.477,1.5,1.5,0,0,0-.024,2.1l.147.156a1.494,1.494,0,0,0,2.113.084,20.017,20.017,0,0,1,27.726,0,1.494,1.494,0,0,0,2.113-.084l.147-.156a1.5,1.5,0,0,0-.024-2.1A23.243,23.243,0,0,0,421.938,339.169Z" transform="translate(-405.398 -339.169)" fill="#f9d27a"/>
            <path id="Path_29" data-name="Path 29" d="M420.051,344.677a15.056,15.056,0,0,0-10.325,4.095,1.636,1.636,0,0,0-.085,2.316h0a1.612,1.612,0,0,0,2.285.055,11.855,11.855,0,0,1,16.251,0,1.612,1.612,0,0,0,2.285-.055h0a1.638,1.638,0,0,0-.084-2.316A15.063,15.063,0,0,0,420.051,344.677Z" transform="translate(-403.511 -336.436)" fill="#f9d27a"/>
          </g>
        </g>
      </g>
    </g>
    <g id="Group_70" data-name="Group 70" transform="translate(481.741 337.247)">
      <path id="Path_30" data-name="Path 30" d="M462.254,272.391H407.47A6.607,6.607,0,0,0,400.863,279v12.016a6.607,6.607,0,0,0,6.607,6.607h9.216l2.678,5.768,3.549-5.768h39.341a6.608,6.608,0,0,0,6.608-6.607V279A6.608,6.608,0,0,0,462.254,272.391Z" transform="translate(-400.863 -272.391)" fill="#04f"/>
      <g id="Group_69" data-name="Group 69" transform="translate(32.351 7.162)">
        <path id="Path_31" data-name="Path 31" d="M430.131,283.273h-2.795V286h-2.071v-2.73h-2.78v-1.958h2.78v-2.73h2.071v2.73h2.795Z" transform="translate(-422.486 -276.48)" fill="#fff"/>
        <path id="Path_32" data-name="Path 32" d="M437.315,285.015c0,1.991-1.46,3.725-4.672,3.725a7.753,7.753,0,0,1-4.288-1.206l1.028-1.99a5.408,5.408,0,0,0,3.2,1.011c1.3,0,2.1-.546,2.1-1.46,0-.884-.579-1.462-2.618-1.462H429.19l.578-6.327h6.858v2.087h-4.69l-.177,2.135h.916C436,281.529,437.315,283.022,437.315,285.015Z" transform="translate(-419.574 -277.114)" fill="#fff"/>
        <path id="Path_33" data-name="Path 33" d="M444.331,285.063c0,2.3-1.879,3.742-4.255,3.742-3.1,0-5.027-1.943-5.027-5.573,0-3.885,2.344-6.053,5.733-6.053a6.067,6.067,0,0,1,3.131.771l-.964,1.912a3.7,3.7,0,0,0-2.1-.564c-1.879,0-3.084,1.109-3.164,3.262a3.79,3.79,0,0,1,2.778-1A3.567,3.567,0,0,1,444.331,285.063Zm-2.521.127a1.693,1.693,0,0,0-1.911-1.685,1.757,1.757,0,0,0-1.943,1.685c0,.965.723,1.671,1.975,1.671A1.681,1.681,0,0,0,441.81,285.19Z" transform="translate(-416.253 -277.178)" fill="#fff"/>
      </g>
      <path id="Path_34" data-name="Path 34" d="M423.007,277.464c-2.71-3.519-8.043-1.442-8.043,2.129,0-3.571-5.332-5.648-8.043-2.129-2.8,3.637-.04,10.008,8.043,13.667C423.047,287.472,425.807,281.1,423.007,277.464Z" transform="translate(-398.385 -270.775)" fill="#fff"/>
    </g>
  </g>
</svg>
